<svg width="8" height="12" viewBox="0 0 8 12" fill="none" xmlns="http://www.w3.org/2000/svg">
<path d="M3.29007 6.00019L6.83007 2.46019C7.01632 2.27283 7.12086 2.01938 7.12086 1.75519C7.12086 1.49101 7.01632 1.23756 6.83007 1.05019C6.7371 0.956464 6.6265 0.88207 6.50464 0.831301C6.38278 0.780533 6.25208 0.754395 6.12007 0.754395C5.98805 0.754395 5.85735 0.780533 5.73549 0.831301C5.61363 0.88207 5.50303 0.956464 5.41007 1.05019L1.17007 5.29019C1.07634 5.38316 1.00194 5.49376 0.951175 5.61562C0.900406 5.73747 0.874268 5.86818 0.874268 6.00019C0.874268 6.1322 0.900406 6.26291 0.951175 6.38477C1.00194 6.50663 1.07634 6.61723 1.17007 6.71019L5.41007 11.0002C5.50351 11.0929 5.61432 11.1662 5.73616 11.216C5.858 11.2657 5.98846 11.291 6.12007 11.2902C6.25167 11.291 6.38213 11.2657 6.50397 11.216C6.62581 11.1662 6.73663 11.0929 6.83007 11.0002C7.01632 10.8128 7.12086 10.5594 7.12086 10.2952C7.12086 10.031 7.01632 9.77756 6.83007 9.59019L3.29007 6.00019Z" fill="white"/>
</svg>
